<svg width="776" height="815" viewBox="0 0 776 815" fill="none" xmlns="http://www.w3.org/2000/svg">
<path d="M5 0H771V815H5V0Z" fill="black"/>
<path fill-rule="evenodd" clip-rule="evenodd" d="M0 815H776V0H0V815ZM148.387 43.517C154.393 46.511 156.343 54.696 152.499 60.774C150.507 63.924 150.428 65.838 150.428 111.024V158H155.615V332.468L161.75 322.231C181.513 289.259 208.576 261.755 242.314 240.353C317.6 192.596 413.837 187.281 494.337 226.435C545.46 251.3 582.845 287.518 607.952 336.5C635.548 390.338 641.736 448.332 626.091 506.5C617.281 539.257 601.201 570.233 578.834 597.535C570.059 608.246 549.273 628.111 538.428 636.152C501.02 663.887 461.558 680.19 416.071 686.7C400.916 688.869 362.791 689.128 349.096 687.155C307.678 681.188 272.384 668.399 240.684 647.869C221.791 635.633 210.427 626.273 194.354 609.707C165.606 580.078 142.822 537.912 133.453 497C127.601 471.445 127.607 471.616 127.605 308.25L127.604 158H132.791V110.816C132.791 64.702 132.742 63.532 130.58 59.228C128.657 55.4 128.524 54.321 129.561 50.986C131.984 43.191 140.754 39.712 148.387 43.517ZM363.102 241.632C351.729 242.668 331.553 246.467 320.895 249.579C259.191 267.596 209.629 310.814 185.721 367.451C175.106 392.598 170.196 416.915 170.16 444.526C170.116 476.751 176.838 505.035 191.355 533.712C222.769 595.77 282.831 637.234 354.802 646.551C399.757 652.37 450.212 642.134 489.668 619.19C508.97 607.967 531.209 589.382 544.944 573C596.218 511.842 606.635 427.933 571.699 357.5C560.532 334.988 548.333 318.351 530.223 300.938C498.27 270.214 461.126 251.672 416.011 243.925C404.339 241.921 374.251 240.617 363.102 241.632ZM326.545 320.832C327.388 321.348 327.626 322.728 327.214 324.715L326.575 327.797L318.642 327.302C292.186 325.653 264.517 343.078 256.698 366.313C254.485 372.892 254.204 373.156 250.228 372.39C247.309 371.827 247.003 371.456 247.546 369.127C248.943 363.137 257.396 348.207 262.49 342.732C272.011 332.499 285.462 324.619 298.694 321.522C305.045 320.036 324.457 319.555 326.545 320.832ZM324.55 334.506C324.75 334.699 324.599 336.239 324.214 337.928L323.514 341L316.076 341.024C302.168 341.07 292.067 344.838 282.166 353.675C276.408 358.812 268.695 370.8 268.695 374.609C268.695 375.582 267.77 375.78 265.324 375.331C263.47 374.991 261.734 374.53 261.467 374.306C260.54 373.528 264.838 363.464 268.375 358.135C277.06 345.045 291.828 336.064 308.636 333.648C311.766 333.198 323.87 333.851 324.55 334.506ZM321.101 348.024C321.462 348.588 321.453 350.388 321.08 352.024C320.422 354.914 320.226 355 314.299 355C301.635 355 290.862 361.447 285.287 372.362C282.287 378.236 281.884 378.611 279.006 378.204C277.315 377.965 275.673 377.365 275.357 376.871C274.099 374.912 280.265 364.689 286.037 359.163C292.26 353.204 297.034 350.489 305.005 348.374C310.762 346.846 320.214 346.641 321.101 348.024ZM418.604 369.099C420.887 369.697 424.08 371.382 425.699 372.843C431.358 377.948 431.572 379.055 431.572 403.297V425.694L436.62 423.286C446.339 418.65 452.523 420.181 463.727 429.996L470.466 435.899L467.326 439.199C465.6 441.015 463.312 443.512 462.244 444.749L460.3 446.998L466.328 444.999C469.644 443.9 472.968 443 473.714 443C475.576 443 477.54 446.82 477.439 450.243C477.394 451.798 478.259 455.6 479.363 458.692C482.125 466.431 481.901 469.8 478.257 475.339C476.545 477.941 475.144 480.983 475.144 482.1C475.144 485.835 473.083 487.968 468.368 489.112L463.733 490.237V498.119C463.733 502.706 464.166 506 464.77 506C465.341 506 465.807 504.489 465.807 502.642V499.285L472.058 498.655C478.606 497.995 482.745 496.391 488.372 492.331L491.743 489.898V494.949C491.743 497.727 492.21 500 492.781 500C493.366 500 493.837 497.055 493.862 493.25C493.892 488.546 494.508 485.439 495.893 483L497.881 479.5L497.924 495.75C497.951 505.889 498.358 512 499.005 512C499.686 512 500.051 489.735 500.066 447.25C500.087 386.381 500.204 382.256 502.01 378.421C505.855 370.26 512.139 367.771 527.786 368.214L537.909 368.5L538.213 415.5C538.503 460.289 537.733 478.56 535.31 484.348C534.767 485.646 534.384 475.494 534.343 458.75C534.302 440.959 533.906 431 533.241 431C532.57 431 532.203 442.368 532.203 463.104V495.208L528.341 502.292C520.619 516.456 506.191 527.163 488.066 532.177C477.291 535.158 452.863 535.415 441.457 532.668C426.57 529.082 412.482 520.307 404.423 509.6L401.487 505.7V471.791C401.487 449.44 401.133 438.093 400.449 438.5C399.795 438.89 399.395 450.642 399.366 470.309L399.32 501.5L397.328 497.866C396.232 495.868 394.291 490.918 393.013 486.866C390.749 479.684 390.682 478.105 390.327 423.75L389.963 368L402.209 368.006C408.944 368.009 416.322 368.501 418.604 369.099ZM350.652 421.5C350.652 455.833 351.011 474 351.69 474C352.337 474 352.727 479.833 352.727 489.5C352.727 499.167 352.337 505 351.69 505C351.068 505 350.652 508.948 350.652 514.843C350.652 527.087 348.42 532.097 341.357 535.697C337.249 537.791 335.492 538 321.96 538H307.08V505H291.519V489.5C291.519 476.389 291.758 474 293.075 474C294.375 474 294.631 476.056 294.631 486.5C294.631 494.167 295.033 499 295.668 499C296.304 499 296.706 494.167 296.706 486.5V474H300.856C304.893 474 305.005 474.093 305.005 477.441C305.005 479.334 305.43 481.135 305.949 481.444C307.669 482.469 308.237 465.847 307.394 439.139L306.561 412.779L297.225 425.246L296.9 422.123C296.391 417.228 294.635 418.469 294.598 423.75C294.58 426.363 293.88 429.374 293.042 430.441C291.662 432.199 291.519 431.615 291.519 424.25C291.519 419.777 291.052 415.84 290.481 415.5C289.815 415.103 289.444 418.615 289.444 425.319C289.444 433.376 289.089 436.039 287.888 437C286.536 438.081 286.332 437.513 286.332 432.681C286.332 429.622 285.865 426.84 285.294 426.5C284.636 426.108 284.257 428.737 284.257 433.682C284.257 441.058 284.045 441.78 280.366 446.944L276.476 452.405L276.147 448.453C275.579 441.617 273.885 442.057 273.849 449.05C273.82 454.817 272.38 459 270.425 459C270.075 459 269.646 452.587 269.471 444.75L269.153 430.5L268.695 462.086L264.421 467.543C262.07 470.544 259.969 473 259.753 473C259.536 473 259.358 462.293 259.358 449.207V425.414L302.412 369.129L350.652 369V421.5ZM428.46 446.441C428.46 474.84 428.832 491.104 429.492 491.497C430.172 491.902 430.497 476.706 430.447 447.056C430.4 420.367 429.979 402 429.414 402C428.848 402 428.46 420.071 428.46 446.441ZM526.451 404.256C526.176 404.946 526.074 421.221 526.224 440.423C526.434 467.273 526.797 475.43 527.794 475.75C528.816 476.078 529.091 468.405 529.091 439.583C529.091 415.119 528.736 403 528.021 403C527.432 403 526.726 403.565 526.451 404.256ZM411.073 451.663C411.249 482.259 411.702 498.413 412.38 498.25C414.049 497.848 413.781 405.784 412.11 405.247C411.068 404.912 410.858 414.35 411.073 451.663ZM394.225 446.559C394.225 471.344 394.577 483.908 395.262 483.5C395.923 483.106 396.299 469.49 396.299 445.941C396.299 421.98 395.935 409 395.262 409C394.589 409 394.225 422.186 394.225 446.559ZM503.864 409.65C503.475 410.026 503.155 428.521 503.155 450.75C503.155 482.639 503.429 491.079 504.452 490.75C505.454 490.428 505.81 481.286 506.02 450.479C506.17 428.558 505.905 410.251 505.432 409.795C504.959 409.339 504.254 409.274 503.864 409.65ZM520.791 450C520.791 476.667 521.155 491 521.829 491C522.503 491 522.866 476.667 522.866 450C522.866 423.333 522.503 409 521.829 409C521.155 409 520.791 423.333 520.791 450ZM347.54 446.559C347.54 468.677 347.894 479.907 348.578 479.5C349.235 479.108 349.615 466.823 349.615 445.941C349.615 424.647 349.248 413 348.578 413C347.906 413 347.54 424.853 347.54 446.559ZM475.144 423.5C475.144 429.5 474.833 431 473.588 431C472.343 431 472.032 429.5 472.032 423.5C472.032 417.5 472.343 416 473.588 416C474.833 416 475.144 417.5 475.144 423.5ZM514.816 462.75C514.992 493.287 515.446 509.413 516.123 509.25C516.791 509.089 517.257 492.449 517.43 462.5C517.668 421.45 517.515 416 516.123 416C514.731 416 514.578 421.477 514.816 462.75ZM326.446 419.667C325.289 420.781 325.626 491.806 326.791 492.5C327.476 492.908 327.829 480.51 327.829 456.059C327.829 435.677 327.673 419 327.483 419C327.293 419 326.826 419.3 326.446 419.667ZM342.353 456C342.353 480 342.717 493 343.39 493C344.064 493 344.428 480 344.428 456C344.428 432 344.064 419 343.39 419C342.717 419 342.353 432 342.353 456ZM263.944 442.5C263.943 453.5 264.094 458.136 264.281 452.803C264.467 447.47 264.468 438.47 264.282 432.803C264.097 427.136 263.945 431.5 263.944 442.5ZM422.898 423.694C422.534 424.046 422.235 442.483 422.235 464.667C422.235 499.852 422.433 505 423.791 505C425.149 505 425.348 499.84 425.348 464.559C425.348 442.316 424.946 423.879 424.454 423.586C423.964 423.294 423.263 423.342 422.898 423.694ZM491.743 423.784C491.743 424.215 489.232 426.959 486.161 429.882C482.403 433.46 480.329 434.806 479.814 434.002C479.348 433.275 481.007 430.892 484.06 427.904C488.626 423.436 491.743 421.765 491.743 423.784ZM405.636 464.5C405.636 490.833 405.999 505 406.674 505C407.348 505 407.711 490.833 407.711 464.5C407.711 438.167 407.348 424 406.674 424C405.999 424 405.636 438.167 405.636 464.5ZM337.641 467.5C337.642 491.15 337.778 500.682 337.943 488.682C338.109 476.683 338.109 457.333 337.943 445.682C337.777 434.032 337.641 443.85 337.641 467.5ZM258.335 493.414C259.008 494.062 259.358 490.901 259.358 484.2V474H266.548C273.177 474 273.773 474.176 274.197 476.25L274.656 478.5L275.428 476.25C275.852 475.012 276.845 474 277.635 474C278.738 474 279.07 475.864 279.07 482.059C279.07 487.177 279.448 489.892 280.107 489.5C280.678 489.16 281.144 485.534 281.144 481.441C281.144 475.493 281.457 474 282.701 474C284.017 474 284.257 476.389 284.257 489.5V505H254.171V468.2C254.171 440.094 254.477 431.105 255.468 430.149C256.505 429.149 256.82 435.251 257.039 460.664C257.205 479.827 257.719 492.82 258.335 493.414ZM321.259 431.667C320.1 432.783 320.438 511.806 321.604 512.5C322.289 512.908 322.642 499.177 322.642 472.059C322.642 449.477 322.486 431 322.296 431C322.105 431 321.638 431.3 321.259 431.667ZM509.38 455C509.38 469.667 509.755 478 510.417 478C511.079 478 511.455 469.667 511.455 455C511.455 440.333 511.079 432 510.417 432C509.755 432 509.38 440.333 509.38 455ZM252.096 470.5V505H238.61V478.691C238.61 457.107 238.884 452.034 240.133 450.441C241.485 448.718 241.66 451.39 241.689 474.25C241.711 490.729 242.095 500 242.759 500C243.425 500 243.797 490.295 243.797 472.884V445.768L247.516 440.884C249.562 438.198 251.429 436 251.666 436C251.902 436 252.096 451.525 252.096 470.5ZM417.048 459.5C417.048 474.5 417.424 483 418.086 483C418.747 483 419.123 474.5 419.123 459.5C419.123 444.5 418.747 436 418.086 436C417.424 436 417.048 444.5 417.048 459.5ZM332.421 460.5C332.422 472.6 332.571 477.413 332.754 471.195C332.936 464.977 332.935 455.077 332.753 449.195C332.569 443.313 332.42 448.4 332.421 460.5ZM498.746 440.25C498.457 441.087 495.974 441.5 491.225 441.5C486.475 441.5 483.993 441.087 483.703 440.25C483.383 439.322 485.323 439 491.225 439C497.127 439 499.067 439.322 498.746 440.25ZM246.909 465C246.909 478.333 247.288 486 247.947 486C248.605 486 248.984 478.333 248.984 465C248.984 451.667 248.605 444 247.947 444C247.288 444 246.909 451.667 246.909 465ZM431.604 452.038C431.678 471.667 435.11 483.505 442.901 491.015C445.544 493.564 449.213 496.154 451.052 496.772L454.396 497.896V493.771C454.396 490.351 453.826 489.188 451.067 486.967C447.772 484.315 447.733 484.182 447.343 473.894C447.09 467.203 446.488 463.144 445.654 462.5C443.809 461.074 441.947 457.448 441.947 455.278C441.947 454.259 439.612 451.209 436.759 448.5L431.572 443.575L431.604 452.038ZM310.193 473.941C310.193 485.49 310.597 493.123 311.23 493.5C311.908 493.904 312.267 487.344 312.267 474.559C312.267 462.186 311.887 455 311.23 455C310.575 455 310.193 461.98 310.193 473.941ZM236.535 480.5C236.535 501.611 236.32 505 234.979 505C233.641 505 233.422 501.826 233.422 482.434C233.422 462.27 234.046 456 236.052 456C236.318 456 236.535 467.025 236.535 480.5ZM316.072 458.667C314.926 459.77 315.258 500.809 316.417 501.5C317.097 501.905 317.455 494.51 317.455 480.059C317.455 467.927 317.299 458 317.109 458C316.918 458 316.451 458.3 316.072 458.667ZM231.348 484V505H223.048L223.081 488.75C223.107 476.048 223.446 472.076 224.637 470.559C226.014 468.804 226.16 469.452 226.16 477.309C226.16 482.436 226.586 486 227.198 486C227.822 486 228.235 481.9 228.235 475.7C228.235 466.662 229.043 463 231.036 463C231.208 463 231.348 472.45 231.348 484ZM289.444 489.5C289.444 502.611 289.204 505 287.888 505C286.571 505 286.332 502.611 286.332 489.5C286.332 476.389 286.571 474 287.888 474C289.204 474 289.444 476.389 289.444 489.5ZM359.037 475C359.568 475 359.989 480.991 359.989 488.559C359.989 497.344 360.354 501.9 361.027 501.5C361.625 501.143 362.064 495.795 362.064 488.858C362.064 479.685 362.371 476.931 363.361 477.245C364.117 477.485 364.788 479.814 364.971 482.829C365.331 488.758 367.209 489.888 367.335 484.25L367.419 480.5L369.383 484.5C370.806 487.397 371.354 490.774 371.374 496.75L371.401 505H354.802V489.393C354.802 475.572 354.99 473.855 356.443 474.393C357.346 474.727 358.513 475 359.037 475ZM457.71 482.803C458.099 484.778 463.412 485.709 465.086 484.095C466.532 482.702 466.054 482.397 461.333 481.694C457.989 481.196 457.428 481.368 457.71 482.803ZM656.706 502.25C662.567 506.095 664.476 509.449 664.476 515.901C664.476 520.702 663.98 522.282 661.486 525.434C654.602 534.134 641.199 534.032 634.441 525.228C631.271 521.097 630.969 512.027 633.853 507.53C638.46 500.343 649.805 497.722 656.706 502.25ZM641.514 504.918C636.909 507.625 634.908 510.823 634.913 515.473C634.927 529.442 654.014 534.101 659.916 521.576C662.301 516.514 662.339 514.729 660.15 510.283C656.82 503.518 648.145 501.021 641.514 504.918ZM649.878 507.572C650.781 508.442 652.741 509 654.271 508.822C658.291 508.354 658.382 510.51 654.394 511.755C651.204 512.75 651.137 512.862 653.324 513.525C655.533 514.196 656.686 517 654.751 517C653.994 517 649.405 515.583 643.479 513.519C641.144 512.706 644.735 506.076 647.544 506.015C647.931 506.007 648.981 506.707 649.878 507.572ZM646.321 510.5C646.321 511.325 646.788 512 647.358 512C647.929 512 648.396 511.325 648.396 510.5C648.396 509.675 647.929 509 647.358 509C646.788 509 646.321 509.675 646.321 510.5ZM645.283 516.8C645.283 517.24 644.7 518.17 643.987 518.867C642.947 519.883 643.089 520.419 644.703 521.567C647.751 523.736 651.508 523.422 651.508 521C651.508 519.889 652.2 519 653.064 519C654.869 519 655.088 521.29 653.547 524.066C652.847 525.325 651.375 526 649.328 526C643.241 526 638.993 521.854 641.134 518C642.208 516.065 645.283 515.176 645.283 516.8ZM655.131 560.236C672.523 568.6 673.699 569.583 670.77 573.306C669.434 575.005 668.462 574.69 654.464 568.033L639.578 560.954L651.776 572.227C664.121 583.635 665.453 585.749 662.37 589.033C660.884 590.616 659.751 590.548 644.474 587.969C635.505 586.455 628.066 585.301 627.945 585.405C627.822 585.509 634.242 588.71 642.209 592.518C650.176 596.327 656.695 599.918 656.695 600.499C656.695 601.08 655.976 602.544 655.098 603.754L653.5 605.953L635.386 597.24C615.631 587.736 615.387 587.494 619.336 581.25C620.782 578.964 622.169 578 624.012 578C626.583 578 644.33 580.493 649.433 581.571C651.391 581.985 649.42 579.588 641.393 571.793C635.544 566.113 630.759 560.926 630.759 560.267C630.759 557.523 634.348 552 636.13 552C637.161 552 645.712 555.706 655.131 560.236ZM616.567 594.801C618.144 596.481 618.023 596.939 614.752 601.62L611.246 606.638L613.481 607.972C614.71 608.705 616.726 609.938 617.959 610.71C620.064 612.028 620.404 611.834 623.456 607.558C625.245 605.051 627.102 603 627.582 603C628.062 603 629.514 603.827 630.81 604.838L633.165 606.676L629.887 611.268C628.085 613.794 626.61 616.067 626.61 616.32C626.61 616.573 629.407 618.517 632.825 620.64C639.249 624.629 640.056 626.146 637.491 629.412C636.363 630.85 635.491 631.098 633.979 630.412C629.423 628.347 601.755 609.412 601.734 608.345C601.691 606.21 611.549 593.075 613.221 593.037C614.131 593.017 615.637 593.81 616.567 594.801ZM165.365 613.404C171.088 620.533 172.172 624.678 169.472 629.112C166.865 633.39 161.246 636.246 156.912 635.494C154.591 635.092 153.54 635.297 153.54 636.152C153.54 638.617 144.822 652.069 143.408 651.785C142.626 651.628 141.257 650.336 140.365 648.914C138.809 646.434 138.916 646.049 143.029 639.477C145.387 635.709 147.316 632.346 147.316 632.004C147.316 631.662 146.661 630.52 145.862 629.466C144.47 627.632 144.135 627.757 138.016 632.39L131.624 637.231L129.075 634.923C127.674 633.654 126.659 632.234 126.82 631.769C127.354 630.224 158.186 607.065 159.416 607.285C160.081 607.403 162.758 610.157 165.365 613.404ZM154.182 620.25C150.484 623.369 150.396 623.591 151.993 625.75C154.947 629.742 162.877 627.66 162.877 622.894C162.877 621.191 160.007 617 158.841 617C158.398 617 156.302 618.462 154.182 620.25ZM591.218 627.108L593.564 629.215L589.982 631.562C585.638 634.407 584.497 637.952 586.639 641.945C588.918 646.193 590.012 646.436 591.806 643.093C596.716 633.941 608.4 635.481 613.924 646.008C616.454 650.831 616.292 654.461 613.351 658.786C611.517 661.486 606.904 664 603.786 664C598.957 664 589.526 657.549 583.556 650.165C576.565 641.515 576.599 634.022 583.656 628.05C587.938 624.425 588.196 624.393 591.218 627.108ZM190.305 640.109L193.02 643.219L183.533 660.859C178.316 670.562 173.629 678.934 173.116 679.464C172.534 680.066 171.123 679.401 169.346 677.686L166.508 674.944L171.395 666.737L161.972 657.654L157.305 660.041C152.734 662.378 152.593 662.389 150.495 660.559C149.317 659.531 148.353 658.186 148.353 657.57C148.353 656.425 184.2 637.057 186.386 637.02C187.049 637.009 188.813 638.399 190.305 640.109ZM598.178 645.548C597.344 646.353 596.346 647.966 595.962 649.133C594.465 653.678 605.492 658.454 607.777 654.25C610.246 649.707 601.804 642.054 598.178 645.548ZM177.401 648.74C174.833 650.15 171.635 651.951 170.294 652.741L167.854 654.179L170.747 657.089C172.337 658.69 173.988 660 174.413 660C175.163 660 182.796 646.861 182.31 646.404C182.178 646.279 179.969 647.33 177.401 648.74ZM213.369 659.969C224.031 668.284 225.321 676.048 217.796 686.592C209.444 698.291 200.137 700.504 189.248 693.38C181.818 688.521 180.579 687.504 180.546 686.241C180.492 684.16 203.704 655 205.415 655C206.285 655 209.864 657.236 213.369 659.969ZM560.784 659.6C563.038 661.03 566.642 664.292 568.794 666.85C579.354 679.406 579.91 690.38 570.273 696.044C566.052 698.525 562.658 698.533 561.288 696.066C559.815 693.415 559.824 693.398 563.251 692.03C569.367 689.588 571.486 684.352 568.519 679.009C567.345 676.896 567.34 676.896 565.243 679.466C562.815 682.442 558.133 685 555.114 685C553.964 685 551.35 683.583 549.304 681.852C540.093 674.056 540.013 664.307 549.118 658.956C553.53 656.363 555.888 656.493 560.784 659.6ZM198.352 674.732L190.052 685.43L193.264 687.715C197.199 690.513 200.733 690.608 205.111 688.035C212.883 683.467 216.635 672.772 212.143 667.987C207.578 663.125 207.222 663.298 198.352 674.732ZM550.532 665.667C548.971 667.17 550.002 671.878 552.449 674.422C555.693 677.796 559.049 677.518 561.217 673.695C562.758 670.979 562.701 670.798 559.419 667.945C556.255 665.194 552.121 664.134 550.532 665.667ZM594.425 671.957C596.015 674.82 595.746 675.79 592.855 677.616C590.34 679.204 590.108 679.175 587.667 676.965C584.52 674.115 584.41 671.588 587.348 669.604C589.895 667.884 592.677 668.809 594.425 671.957ZM535.37 674.691C539.081 676.804 540.842 680.77 540.337 685.877C539.956 689.734 540.029 689.831 543.761 690.407C549.148 691.237 552.952 695.805 552.952 701.442C552.952 706.761 550.438 710.058 544.144 712.995C538.336 715.705 534.328 715.034 530.564 710.723C528.195 708.008 527.892 706.901 528.28 702.379L528.729 697.166L524.865 695.704C517.994 693.102 515.135 685.391 518.958 679.767C520.631 677.307 528.295 673.002 531.006 673.001C531.774 673 533.738 673.761 535.37 674.691ZM238.613 676.801L240.92 678.602L230.282 695.301C219.306 712.53 217.863 713.87 214.338 710.114C212.647 708.313 213.045 707.485 223.255 691.615C229.132 682.477 234.473 675 235.123 675C235.773 675 237.343 675.81 238.613 676.801ZM526.186 682.2C523.239 685.041 526.109 690 530.701 690C533.694 690 535.078 686.31 533.292 683.093C532.012 680.788 528.154 680.303 526.186 682.2ZM264.151 689.54C272.786 694.372 273.959 703.725 267.381 715.282C260.538 727.302 252.182 730.592 241.841 725.338C234.693 721.707 232.031 717.436 232.781 710.8C233.878 701.098 242.278 689.114 249.436 687.039C253.769 685.784 259.038 686.679 264.151 689.54ZM502.816 705.5C508.839 719.945 509.44 726.172 505.23 730.514C501.972 733.875 498.302 735.739 494.32 736.055C484.319 736.851 482.054 734.633 474.648 716.792C469.066 703.344 468.853 702.52 470.644 701.258C474.695 698.402 476.202 699.976 481.352 712.444C484.066 719.013 487.246 725.425 488.417 726.694C492.543 731.158 500.043 728.247 500.043 722.182C500.043 720.632 497.709 713.8 494.856 707C492.003 700.2 489.668 694.507 489.668 694.35C489.668 694.193 490.953 693.406 492.521 692.601C496.39 690.619 496.853 691.199 502.816 705.5ZM247.59 697.959C242.667 703.211 239.752 712.309 241.842 715.894C242.632 717.248 244.728 718.926 246.5 719.622C251.69 721.661 255.99 718.972 260.136 711.095C264.201 703.373 264.404 699.773 260.961 696.455C256.916 692.555 252.152 693.091 247.59 697.959ZM535.263 699.635C533.083 705.161 539.909 709.5 543.973 705.171C546.204 702.794 546.146 700.709 543.792 698.655C540.778 696.025 536.492 696.517 535.263 699.635ZM306.178 705.157C313.072 706.978 314.34 707.639 314.327 709.407C314.294 713.589 312.906 714.393 307.839 713.162C305.285 712.543 302.499 711.778 301.646 711.462C300.489 711.034 299.781 712.088 298.865 715.592C298.189 718.18 298.01 720.604 298.467 720.98C298.925 721.355 301.284 722.207 303.709 722.872C307.196 723.828 308.115 724.542 308.102 726.29C308.071 730.632 306.913 731.141 300.95 729.434C297.932 728.571 295.326 728.007 295.158 728.182C294.99 728.357 293.948 731.65 292.844 735.5C290.702 742.959 288.8 744.46 284.936 741.737C283.125 740.46 283.287 739.571 288.451 722.449C291.429 712.577 294.066 704.163 294.309 703.75C295.013 702.561 297.441 702.849 306.178 705.157ZM456.144 707.064C463.615 709.785 469.005 719.52 469.179 730.612C469.291 737.757 467.076 742.259 461.745 745.722C454.712 750.291 446.2 749.906 441.005 744.783C434.192 738.066 431.149 721.797 435.398 714.804C439.534 707.996 449.003 704.463 456.144 707.064ZM343.12 713.618C349.486 718.118 351.359 727.975 347.95 739.041C344.021 751.795 331.271 756.727 320.424 749.688C315.343 746.392 313.831 742.739 314.003 734.184C314.12 728.329 314.739 725.733 317.099 721.184C321.263 713.158 325.36 710.709 333.783 711.209C338.159 711.469 341.184 712.249 343.12 713.618ZM429.497 712.647C429.497 713.003 427.839 718.64 425.812 725.175C422.648 735.376 422.171 738.218 422.441 745.278L422.754 753.5L419.471 753.807C415.743 754.156 415.529 753.768 414.462 744.73C413.914 740.082 412.484 736.846 407.115 728.098C403.448 722.125 400.449 716.77 400.449 716.198C400.449 714.975 406.169 713.581 407.626 714.449C408.177 714.778 410.388 718.186 412.537 722.023C416.786 729.604 417.092 729.557 419.126 721C421.037 712.967 421.765 712 425.903 712C427.88 712 429.497 712.291 429.497 712.647ZM444.03 716.492C441.276 719.317 440.855 724.694 442.845 731.619C444.657 737.929 447.637 741 451.945 741C456.943 741 459.22 739.591 460.562 735.669C462.551 729.86 458.83 717.287 454.453 715.03C450.961 713.228 446.617 713.837 444.03 716.492ZM377.337 716.672C384.408 719.907 385.682 729.613 379.738 734.966C377.169 737.279 376.991 737.809 378.228 739.441C380.343 742.229 384.126 753.865 383.461 755.536C382.849 757.071 378.965 757.491 376.989 756.235C376.354 755.831 374.758 752.198 373.444 748.162C371.589 742.466 370.497 740.619 368.567 739.912C365.098 738.641 365.176 738.572 365.176 742.86C365.176 744.984 364.877 748.832 364.509 751.413C363.865 755.946 363.732 756.095 360.619 755.803L357.396 755.5L357.644 736.5C357.781 726.05 358.117 716.938 358.39 716.25C359.157 714.319 372.86 714.624 377.337 716.672ZM326.858 720.783C324.696 722.867 323.687 725.189 322.842 730.033C320.975 740.732 323.161 745.099 330.489 745.299C337.012 745.477 341.297 738.511 341.309 727.705C341.321 718.753 333.065 714.799 326.858 720.783ZM365.806 723.582C365.46 724.452 365.176 726.927 365.176 729.082C365.176 732.769 365.36 733 368.289 733C372.615 733 375.942 729.636 375.039 726.173C374.66 724.714 373.803 723.185 373.135 722.775C370.968 721.447 366.459 721.944 365.806 723.582Z" fill="white"/>
</svg>
